<svg xmlns="http://www.w3.org/2000/svg" width="30" height="30" viewBox="0 0 30 30">
  <path id="Sustracción_1" data-name="Sustracción 1" d="M15,30A15,15,0,0,1,4.393,4.393,15,15,0,1,1,25.606,25.606,14.9,14.9,0,0,1,15,30Zm4.906-10.306a9.488,9.488,0,0,1-2.152,1.453h1.853Zm.522-2.524a8.684,8.684,0,0,1-1.064,1.272,7.613,7.613,0,0,1-4.082,2.136l-.122.569H16.64a9.064,9.064,0,0,0,3.286-2.07c.04-.043.085-.087.141-.139ZM8.374,15.494v0a5.65,5.65,0,0,0,1.619,4.63A4.932,4.932,0,0,0,11.5,21.146H13.3l.109-.535a4.713,4.713,0,0,1-2.661-1.321,4.573,4.573,0,0,1-.9-1.262H8.8l.4-1.994h.151V15.85a6.355,6.355,0,0,1,.756-2.918H9.849l.361-1.7A8.256,8.256,0,0,0,8.37,15.5l0,0Zm-.99-2.7a9.037,9.037,0,0,0-.837,3.711,7.157,7.157,0,0,0,.5,2.678,6.672,6.672,0,0,0,1.216,1.958h2.313a5.258,5.258,0,0,1-.9-.716,6.065,6.065,0,0,1-1.749-4.972,8.044,8.044,0,0,1,.835-2.812,10.29,10.29,0,0,1,1.965-2.661A10,10,0,0,1,13.374,8.1c.066-.03.143-.065.211-.1H11.35A12.46,12.46,0,0,0,9.9,9.239,11.953,11.953,0,0,0,7.385,12.8ZM8.758,8c-.07.063-.143.133-.23.22a14.552,14.552,0,0,0-2.556,3.365L4.648,18.022a8.289,8.289,0,0,0,.526,2,8.131,8.131,0,0,0,.558,1.128H7.693a7.069,7.069,0,0,1-1.051-1.8A7.525,7.525,0,0,1,6.1,16.513l0-.006a9.363,9.363,0,0,1,.877-3.883A12.426,12.426,0,0,1,9.6,8.926,13.084,13.084,0,0,1,10.637,8H8.758ZM4.417,19.129h0L4,21.146H5.225a8.518,8.518,0,0,1-.456-.963l-.007,0A8.463,8.463,0,0,1,4.417,19.129Zm5.927-1.1a4.141,4.141,0,0,0,.723.952A4.28,4.28,0,0,0,13.5,20.19l.187-.92h.006a3.743,3.743,0,0,1-1.853-1.025l-.022-.023c-.057-.06-.117-.123-.175-.19Zm7.3-8.888-.2.967a3.509,3.509,0,0,1,1.67.92,3.729,3.729,0,0,1,1.107,2.71,5.624,5.624,0,0,1-1.783,3.885h.01a5.984,5.984,0,0,1-2.892,1.63l-.181.874a7.267,7.267,0,0,0,3.674-1.984,7.173,7.173,0,0,0,2.136-3.959,5.184,5.184,0,0,0,.052-.921,4.337,4.337,0,0,0-1.32-2.976A4.224,4.224,0,0,0,17.645,9.143Zm-5.4,8.891a3.36,3.36,0,0,0,1.538.808l.164-.8.007,0H12.247Zm6.794-4.025h0a4.1,4.1,0,0,1-1.347,2.832,4.5,4.5,0,0,1-1.883,1.134l-.164.8a5.664,5.664,0,0,0,2.484-1.465,5.188,5.188,0,0,0,1.648-3.58,3.3,3.3,0,0,0-.981-2.4,3,3,0,0,0-1.446-.8l-.174.834a2.668,2.668,0,0,1,1.012.625,2.786,2.786,0,0,1,.854,2.021ZM17.1,11.8l-.151.739a1.759,1.759,0,0,1,.408.3,1.975,1.975,0,0,1,.559,1.583,2.674,2.674,0,0,1-.835,1.692,3.271,3.271,0,0,1-1.018.69l-.141.69a4.227,4.227,0,0,0,1.468-.953l.007,0a3.691,3.691,0,0,0,1.216-2.524,2.373,2.373,0,0,0-.724-1.715A2.2,2.2,0,0,0,17.1,11.8Zm7.744,1.977a9.838,9.838,0,0,1-.723,2.76h1.019l.624-3.1h-.886c-.013.114-.024.231-.033.345ZM23.1,13.432c-.011.208-.028.394-.052.568a7.981,7.981,0,0,1-.756,2.53h1.354a9.4,9.4,0,0,0,.756-2.8c.012-.095.022-.192.031-.286v-.01Zm-1.429,0a5.645,5.645,0,0,1-.059.808,6.732,6.732,0,0,1-.795,2.29h.986a7.744,7.744,0,0,0,.814-2.579c.018-.157.032-.327.043-.518Zm-4.823-.447-.677,3.27a2.859,2.859,0,0,0,.6-.45,2.239,2.239,0,0,0,.7-1.426l.01.01a1.579,1.579,0,0,0-.434-1.248l-.025-.022A1.525,1.525,0,0,0,16.851,12.984Zm-4.784-.05a4.783,4.783,0,0,0-.854,2.645,4.228,4.228,0,0,0,.026.46h.8a3.038,3.038,0,0,1-.076-.689,3.561,3.561,0,0,1,.328-1.479,4.452,4.452,0,0,1,.569-.937Zm-1.455,0A5.891,5.891,0,0,0,9.8,15.85c0,.071,0,.132.006.187h1a3.422,3.422,0,0,1-.032-.454,5.167,5.167,0,0,1,.778-2.649Zm4.248.105a2.821,2.821,0,0,0-.575.44,2.383,2.383,0,0,0-.775,1.663,1.46,1.46,0,0,0,.273.886h.47Zm-1.426-.105h0A3.672,3.672,0,0,0,12.4,15.34a2.544,2.544,0,0,0,.092.689h.779a1.992,1.992,0,0,1-.2-.886,2.823,2.823,0,0,1,.906-1.972,3.326,3.326,0,0,1,.266-.237h-.808Zm6.791-2.96h0a4.806,4.806,0,0,1,1.238,2.018l.017.066.207-1h.585A5.532,5.532,0,0,0,21.023,9.18,5.162,5.162,0,0,0,19.157,8H17.876l-.139.709a5.054,5.054,0,0,1,.611.145,4.583,4.583,0,0,1,1.883,1.117ZM23.166,8a7.3,7.3,0,0,1,1.524,3.056h1.6A8.63,8.63,0,0,0,25.768,9.1,8.271,8.271,0,0,0,25.232,8H23.166ZM20.192,8a5.434,5.434,0,0,1,1.147.867,5.839,5.839,0,0,1,1.413,2.189H24.24A6.837,6.837,0,0,0,22.584,8ZM14.787,8a9.34,9.34,0,0,0-3.746,2.29c-.241.24-.477.5-.7.766h1.13c.049-.052.1-.1.152-.154l.033-.033a7.594,7.594,0,0,1,4.218-2.179L16.019,8H14.787Zm.713,2.513,0,.007a5.172,5.172,0,0,0-1.4.533h1.288l.11-.532Zm.283-1.366h0a7.19,7.19,0,0,0-3.69,1.905h1.2a5.838,5.838,0,0,1,2.31-1h-.007l.191-.906ZM6.714,8l-.473,2.3A15.147,15.147,0,0,1,8.127,8ZM25.735,8h0a8.768,8.768,0,0,1,.822,2.142L27,8H25.735Z"/>
</svg>
