<svg width="30" height="30" viewBox="0 0 30 30" fill="none" xmlns="http://www.w3.org/2000/svg">
<path fill-rule="evenodd" clip-rule="evenodd" d="M15.0719 7.78415e-06C11.4939 -0.0036288 8.03155 1.26704 5.30531 3.58432C2.57907 5.90159 0.767162 9.11399 0.194281 12.6458C-0.378601 16.1777 0.324994 19.7981 2.17898 22.8583C4.03296 25.9185 6.91615 28.2185 10.3118 29.346C11.0698 29.4846 11.3378 29.0132 11.3378 28.6158C11.3378 28.2184 11.3378 27.3126 11.3378 26.0555C7.13231 26.9706 6.245 24.0314 6.245 24.0314C5.96601 23.1204 5.37329 22.3378 4.57205 21.8223C3.21336 20.898 4.68297 20.898 4.68297 20.898C5.15925 20.9653 5.61397 21.1401 6.01271 21.4091C6.41145 21.6781 6.74374 22.0344 6.98443 22.4508C7.18894 22.8217 7.46466 23.1484 7.79577 23.4124C8.12687 23.6764 8.50686 23.8725 8.91391 23.9893C9.32096 24.1061 9.74707 24.1413 10.1678 24.093C10.5885 24.0447 10.9955 23.9138 11.3655 23.7079C11.4235 22.9475 11.7513 22.2329 12.2898 21.6929C8.94391 21.314 5.43163 20.02 5.43163 14.2987C5.40866 12.8041 5.96132 11.3579 6.97519 10.2595C6.52363 8.96003 6.57641 7.53835 7.12307 6.27589C7.12307 6.27589 8.38934 5.8692 11.2639 7.81944C13.7322 7.14172 16.3376 7.14172 18.806 7.81944C21.6805 5.8692 22.9375 6.27589 22.9375 6.27589C23.4918 7.52499 23.5578 8.93647 23.1224 10.2318C24.1363 11.3302 24.6889 12.7764 24.666 14.2709C24.666 20.0569 21.1444 21.3232 17.7893 21.6652C18.1491 22.0268 18.4269 22.4616 18.6039 22.94C18.7809 23.4184 18.853 23.9293 18.8152 24.438C18.8152 26.453 18.8152 28.0797 18.8152 28.5696C18.8152 29.0595 19.0833 29.4384 19.8504 29.2905C23.2075 28.1333 26.0475 25.8267 27.8687 22.7785C29.69 19.7302 30.3753 16.1363 29.8035 12.6317C29.2318 9.12712 27.4398 5.93739 24.7441 3.62599C22.0485 1.3146 18.6227 0.0303142 15.0719 7.78415e-06Z" fill="#1E1D16"/>
</svg>
