<svg width="31" height="31" viewBox="0 0 31 31" fill="none" xmlns="http://www.w3.org/2000/svg">
<path d="M15.2066 0.166016C6.92292 0.166016 0.207031 6.8819 0.207031 15.1656C0.207031 23.4496 6.92266 30.1658 15.2066 30.1658C23.4909 30.1658 30.207 23.4496 30.207 15.1656C30.2068 6.8819 23.4909 0.166016 15.2066 0.166016ZM8.9825 6.93118C10.0028 6.93118 10.8304 7.68592 10.8304 8.61703C10.8304 9.54813 10.0028 10.3029 8.9825 10.3029C7.96166 10.3029 7.13456 9.54813 7.13456 8.61703C7.13456 7.68592 7.96166 6.93118 8.9825 6.93118ZM10.8445 21.3503H7.19317V11.8227H10.8445V21.3503V21.3503ZM23.2518 21.3503H19.5828V16.1113C19.5828 15.5132 19.4718 15.0899 19.2506 14.8414C19.0291 14.5935 18.7181 14.469 18.3179 14.469C17.8752 14.469 17.516 14.6365 17.2411 14.9716C16.9659 15.3067 16.8287 15.9077 16.8287 16.775V21.3503H13.1771V11.8227H16.5771V13.3745C17.0852 12.7409 17.5998 12.2878 18.12 12.0154C18.6403 11.7434 19.2739 11.6075 20.0217 11.6075C21.0327 11.6075 21.8235 11.9078 22.3948 12.509C22.9657 13.1099 23.2515 14.0384 23.2515 15.2945V21.3503H23.2518Z" fill="black"/>
</svg>
